<?xml version="1.0" encoding="UTF-8"?>
<svg version="1.1" viewBox="0 0 24 24" xmlns="http://www.w3.org/2000/svg" xmlns:cc="http://creativecommons.org/ns#" xmlns:dc="http://purl.org/dc/elements/1.1/" xmlns:rdf="http://www.w3.org/1999/02/22-rdf-syntax-ns#" height="1em" width="1em">
<metadata>
<rdf:RDF>
<cc:Work rdf:about="">
<dc:format>image/svg+xml</dc:format>
<dc:type rdf:resource="http://purl.org/dc/dcmitype/StillImage"/>
<dc:title/>
</cc:Work>
</rdf:RDF>
</metadata>
<path d="m8.0212 9.0403s0.46404-0.41984 0.64082-0.55243 0.44194-0.46404 0.53033-0.57452c0.088388-0.11049 0.41984-0.44194 0.55243-0.55243 0.13258-0.11049 0.53033-0.37565 0.64081-0.46404 0.11048-0.088388 0.44545-0.32753 0.64082-0.44194 0.32806-0.19212 0.15468-0.13258 0.30936-0.17678 0.15468-0.044194 0.64082-0.24307 0.64082-0.24307s0.48614 0.11049 0.66291 0.24307c0.17678 0.13258 0.11048-0.066291 0.41984 0.17678 0.17375 0.13652 0.30936 0.24307 0.48614 0.33146 0.17678 0.088388 0.48614 0.26517 0.53033 0.37565 0.04419 0.11049 0.22097 0.15468 0.41984 0.33146 0.19887 0.17678 0.35355 0.19887 0.44194 0.33146 0.08839 0.13258 0.24307 0.30936 0.24307 0.30936s0.22097 0.24307 0.33146 0.35355c0.11048 0.11049 0.37565 0.35355 0.44194 0.41984 0.06629 0.066291 1.0386-0.066291 1.1049-1.37 0.06629-1.3037-0.53033-3.9112-0.46404-4.7951 0.06629-0.88388 0.48614-1.9666 0.59662-2.1876 0.11048-0.22097 0.19887 0.59662 0.28726 1.1049 0.08839 0.50823 0.11048 1.7236 0.26516 2.4086 0.15468 0.68501 0.97227 2.497 1.0165 2.8063 0.04419 0.30936 0.35355 1.9003 0.19887 2.4528-0.15468 0.55243-0.44194 1.0828-0.7513 1.4363-0.30936 0.35355-1.3479 1.0165-1.3479 1.0165s0.11049 0.57452 0.08839 0.66291c-0.0221 0.08839 0.0221 0.50823 0.0221 0.50823h-0.06629s-0.15468 1.3479-0.13258 1.4805c0.0221 0.13258-0.19887 0.08839-0.11048 0.30936 0.08839 0.22097 0.24307 0.50823 0.22097 1.149-0.0221 0.64082-0.13258 1.7236-0.26516 2.1876-0.13258 0.46404-0.64082 2.0329-0.81759 2.2539-0.17678 0.22097-1.1932 0.97227-1.2816 0.92808-0.08839-0.04419 0.35356-0.50823 0.50823-0.7513 0.15468-0.24307 0.48614-0.95017 0.46404-1.3479-0.0221-0.39775-0.04419-0.59662 0.17678-0.86179 0.22097-0.26516 0.53033-1.1049 0.57452-1.6131 0.04419-0.50823 0.15468-1.2816 0.15468-1.4363 0-0.15468-0.19887 0.28726-0.37565 0.64082-0.17678 0.35355-0.81759 1.0386-0.99437 1.1932-0.17678 0.15468-1.3037 0.57452-1.5247 0.61872-0.22097 0.04419-0.7955 0.11049-0.92808 0.19887-0.13258 0.08839-0.59662 0.39775-0.59662 0.39775s-0.35355-0.24307-0.46404-0.35356c-0.11048-0.11048-0.7955-0.15468-1.0607-0.19887-0.26517-0.044194-0.68502-0.35355-0.95018-0.46404-0.26517-0.11049-1.127-0.7955-1.2153-1.0165-0.088388-0.22097-0.28726-0.55243-0.35355-0.66291s-0.28726-0.59662-0.28726-0.59662l0.022097 0.7734s0.11049 0.83969 0.15468 1.127c0.044194 0.28726 0.24307 0.97227 0.41984 1.2374s0.26516 0.35355 0.26516 0.64082c0 0.28726-0.044194 0.50823 0.044194 0.83969 0.088388 0.33146 0.39775 0.86179 0.55243 1.0165 0.15468 0.15468 0.55243 0.61872 0.55243 0.61872s-0.64082-0.28726-0.81759-0.41984c-0.17678-0.13258-0.48614-0.39775-0.64082-0.66291s-0.41984-0.97227-0.48614-1.1932c-0.066291-0.22097-0.28726-1.0607-0.30936-1.2153-0.022097-0.15468-0.19887-1.2816-0.19887-1.5247 0-0.24307 0-0.97227 0.044194-1.0828 0.044194-0.11048 0.11049-0.39775 0.11049-0.39775l-0.24307-0.30936s0.11049-0.04419 0-0.19887c-0.11049-0.15468 0.044194-0.19887 0.066291-0.37565 0.022097-0.17678-0.022097-0.92808-0.022097-0.92808s-0.022097 0.33146-0.022097 0 0.11049-0.59662 0.11049-0.59662-0.066291-0.19887-0.066291-0.37565c0-0.17678-1.5026-1.2153-1.6573-1.4805-0.15468-0.26516-0.50823-1.3921-0.46404-1.9445 0.044194-0.55243 0.39775-1.9445 0.59662-2.3423 0.19887-0.39775 0.55243-1.4142 0.61872-1.6573 0.066291-0.24307 0.33146-1.3037 0.33146-1.591s0.044194-1.4142 0.044194-1.812c0-0.39775 0.11049-0.53033 0.11049-0.53033s0.19887 0.088388 0.26516 0.33146c0.066291 0.24307 0.44194 1.2816 0.44194 1.7678s0.088388 1.3921-0.022097 2.0329c-0.11049 0.64082-0.44194 2.0992-0.44194 2.4749 0 0.37565 0.19887 1.1932 0.37565 1.37s0.64082 0.44194 0.64082 0.44194z" fill="none" stroke="currentColor" stroke-linecap="round" stroke-linejoin="round" stroke-width="1.0016"/>
<path d="m7.1153 14.454s1.3258-0.64082 1.7899-0.7292c0.46404-0.08839 1.4142 0.33146 1.6794 0.39775 0.26516 0.06629 0.70711 0.92808 0.70711 1.2816s-0.06629 2.3423-0.06629 2.3423l0.7955 0.26516 0.92807-0.30936s-0.22097-2.0329-0.22097-2.1876c0-0.15468-0.0221-0.61872 0.08839-0.7955 0.11048-0.17678 0.19887-0.39775 0.48614-0.44194 0.28726-0.04419 1.1932-0.41985 1.591-0.35355 0.88 0.14855 1.8144 0.77644 1.812 0.7292l0.19888-1.7015s-1.7236-0.57452-2.0329-0.61872c-0.30936-0.04419-1.1711 0.22097-1.4805 0.22097s-1.0386-0.44194-1.2816-0.46404-1.0828 0.30936-1.3921 0.35356c-0.30936 0.04419-1.6573-0.17678-1.8562-0.15468-0.19887 0.0221-1.7015 0.66291-1.7015 0.66291z" fill="none" stroke="currentColor" stroke-linecap="round" stroke-linejoin="round" stroke-width="1px"/>
<path d="m7.1374 12.001s0.68501-0.83969 0.70711-1.0386 0.26517-0.83969 0.22097-1.2595c-0.044194-0.41984-0.044194-0.66291-0.044194-0.66291" fill="none" stroke="currentColor" stroke-linecap="round" stroke-linejoin="round" stroke-width="1px"/>
<path d="m16.86 11.78s-0.90598-0.88388-0.97227-1.1711c-0.06629-0.28726-0.17678-1.6794-0.06629-1.7678" fill="none" stroke="currentColor" stroke-linecap="round" stroke-linejoin="round" stroke-width="1px"/>
</svg>
