<?xml version="1.0" encoding="UTF-8"?>
<svg version="1.1" viewBox="0 0 24 24" xmlns="http://www.w3.org/2000/svg" xmlns:cc="http://creativecommons.org/ns#" xmlns:dc="http://purl.org/dc/elements/1.1/" xmlns:rdf="http://www.w3.org/1999/02/22-rdf-syntax-ns#" height="1em" width="1em">
<metadata>
<rdf:RDF>
<cc:Work rdf:about="">
<dc:format>image/svg+xml</dc:format>
<dc:type rdf:resource="http://purl.org/dc/dcmitype/StillImage"/>
<dc:title/>
</cc:Work>
</rdf:RDF>
</metadata>
<g stroke="currentColor" stroke-linejoin="round">
<path d="m18.695 3.9995s-0.66538-0.62236-1.4113-1.0414c-0.74591-0.41901-2.1746-1.1228-3.0423-1.338-0.86765-0.2152-1.4869-0.32071-1.4869-0.32071l-0.06289-0.11176-1.0516-0.055674-0.01956 0.11269s-1.709 0.17665-2.1402 0.33895c-0.43126 0.1623-1.5825 0.46766-2.2586 0.90264-0.67603 0.43498-2.0474 1.4401-2.0474 1.4401l-0.10304 0.00115-0.44913 0.45493 0.083491 0.11153s-0.63163 0.77189-0.93651 1.2252c-0.30487 0.45331-0.79183 1.2686-1.1743 2.2401-0.38243 0.97154-0.6374 2.3465-0.69307 2.9995-0.055674 0.65296-0.13747 0.72136-0.13747 0.72136l0.010596 1.1246 0.10325 0.02135s0.11407 1.1684 0.26298 1.6616c0.14892 0.4932 0.57316 1.7706 0.92985 2.4414 0.35669 0.67082 1.4442 2.3457 1.6524 2.5683 0.2082 0.2226 0.14595 0.17831 0.14595 0.17831l-0.060765 0.11315 0.45719 0.39976 0.12301-0.06887s0.60144 0.39814 1.2237 0.81854c0.62226 0.4204 2.0293 1.0119 3.0622 1.2703 1.0329 0.25833 1.5075 0.32048 1.5075 0.32048l0.0014 0.15744 1.113 0.0099 0.06098-0.09066s1.5851-0.19776 2.1606-0.36168c0.57553-0.16392 1.7665-0.62718 2.2382-0.87991 0.47165-0.25273 1.863-1.3256 1.9858-1.4169 0.1228-0.09136 0.12449 0.08857 0.12449 0.08857l0.42746-0.56715-0.0837-0.13403s1.0385-1.3388 1.323-1.7694c0.28448-0.43058 1.0903-2.3966 1.1696-2.7349 0.07924-0.3383 0.37034-2.2536 0.36907-2.3885-0.0013-0.13495 0.1432-0.11409 0.1432-0.11409l-0.07307-1.1914-0.12449-0.08857s-0.04821-0.74176-0.19841-1.3699c-0.1501-0.62806-0.53376-1.9734-0.76405-2.3532-0.23029-0.37981-0.67175-1.2971-0.96386-1.6762-0.29211-0.37912-0.81325-1.0031-0.87592-1.0924-0.062663-0.089273 0.060345-0.15814 0.060345-0.15814l-0.47844-0.467z" fill="none" stroke-width="1.1535px"/>
<path d="m11.552 4.9345-0.18568-0.02041 0.77271-1.1109 0.75248 1.1163-0.22647 0.025038 5.57e-4 4.4313s0.51795 0.28661 0.62205 0.39791c0.10411 0.11131 5.0821-5.2757 5.0821-5.2757l0.47249-0.16276-0.05632 0.58548-4.9789 5.297s0.25111 0.40208 0.29487 0.67151c0.04377 0.26944 0.06438 0.26921 0.06438 0.26921l4.2452-0.04766 0.01829-0.24764 1.0586 0.7979-0.91929 0.8651-0.02253-0.20219-4.2864 0.04814s-0.11834 0.56368-0.24008 0.7675l-0.12174 0.20381 4.9993 5.6124 0.04673 0.58432-0.66114-0.17253-4.8954-5.5236s-0.32697 0.2961-0.59444 0.34409c-0.26748 0.048-0.24666 0.07026-0.24666 0.07026l-0.12224 4.5227 0.28872 0.01925-0.81286 1.2238-0.85658-1.2276 0.28851-0.0034 0.10143-4.545s-0.57914-0.21844-0.70406-0.352c-0.12492-0.13356-0.12407-0.04358-0.12407-0.04358l-4.851 5.7455-0.57575 0.14143-0.00572-0.60728 4.9742-5.7919s-0.21032-0.44752-0.29487-0.67151c-0.084552-0.22399-0.10623-0.33622-0.10623-0.33622l-4.4294 0.18471 0.00296 0.31488-1.1413-0.81946 1.0635-0.86672 0.023154 0.26967 4.4498-0.20743s-0.00272-0.29239 0.22096-0.60982c0.22372-0.31737 0.22351-0.33986 0.22351-0.33986l0.041-0.02296-5.0796-5.3865-0.17122-0.6729 0.59953 0.19571 5.1204 5.3411s0.30657-0.27337 0.43-0.29725c0.12344-0.023879 0.34927-0.11639 0.34927-0.11639z" stroke-linecap="round" stroke-width=".57674"/>
</g>
<path d="m22.957 1.0572 0.26317 0.5057-0.07474 0.73839-0.22102 0.23449 0.28576 0.50088-0.50982 0.48345-0.39575-0.61118s-0.68759 0.38762-0.9312 0.62693c-0.18712 0.18378-0.40318 0.358-0.62063 0.5652-0.0657 0.062555-0.13148 0.12816-0.19666 0.19793-0.28094 0.30079-0.77114 0.91383-0.77114 0.91383l0.64026 1.1476s-0.07763 0.25739-0.24265 0.39965c-0.16502 0.14227-0.26324 0.10973-0.26324 0.10973l-0.68255-0.65698-16.46 15.127s-0.85854 0.7987-1.0835 1.0073c-0.22495 0.20857-0.43123 0.3864-0.64633 0.35205-0.2151-0.034346-0.44101 0.013883-0.34176-0.40866 0.099252-0.42254 17.665-17.792 17.665-17.792s-0.43405-0.71003-0.4576-0.86555c-0.02356-0.15551 0.41946-0.46415 0.41946-0.46415l0.78269 1.0102s0.8261-0.55097 0.92728-0.65284c0.10118-0.10187 0.63752-0.56422 0.83595-0.79389 0.19843-0.22967 0.68863-0.8427 0.71514-0.82161 0.02653 0.02111-0.42227-0.63228-0.34761-0.75524 0.07466-0.12297 0.47249-0.42196 0.47249-0.42196l0.37909 0.34717 0.23673-0.13081z" stroke="currentColor" stroke-linecap="round" stroke-linejoin="round" stroke-width=".6176"/>
</svg>
