<?xml version="1.0" encoding="UTF-8"?>
<svg version="1.1" viewBox="0 0 24 24" xmlns="http://www.w3.org/2000/svg" xmlns:cc="http://creativecommons.org/ns#" xmlns:dc="http://purl.org/dc/elements/1.1/" xmlns:rdf="http://www.w3.org/1999/02/22-rdf-syntax-ns#">
<g transform="matrix(1.4131 1.3124 -1.28 1.4339 9.8894 -21.563)" fill="currentColor" stroke-width="1px">
<path d="m12.8 16.597v-6.3008s-0.07734-0.15625-0.07734-0.23828 0.07734-0.10156 0.07734-0.16406 0.08839-0.07031 0.08839-0.07031 0.15796-0.023437 0.30936-0.023437 0.4088 0.05469 0.4088 0.05469l0.19572-0.125-0.19572-0.13281s-0.27894 0.046875-0.4088 0.046875-0.30936-0.10547-0.30936-0.10547l-0.08839-0.00781s-0.07734-0.07422-0.07734-0.23438v-2.2812s0.07734-0.16797 0.07734-0.30078-0.07734-0.23047-0.07734-0.23047-0.13338-0.11328-0.30756-0.11917c-0.17418-0.00589-0.30755 0.10739-0.30755 0.10739s-0.07734 0.09766-0.07734 0.23047 0.07734 0.30078 0.07734 0.30078v2.2812c0 0.16016-0.07734 0.23438-0.07734 0.23438l-0.08839 0.00781s-0.17951 0.10547-0.30936 0.10547c-0.12985 0-0.40879-0.046875-0.40879-0.046875l-0.19572 0.13281 0.19572 0.125s0.2574-0.05469 0.40879-0.05469c0.1514 0 0.30936 0.023437 0.30936 0.023437s0.08839 0.00781 0.08839 0.07031 0.07734 0.08203 0.07734 0.16406c0 0.08203-0.07734 0.23828-0.07734 0.23828v6.3008c0 0.59765 0.38489 1.1973 0.38489 1.1973s0.3849-0.58786 0.3849-1.1855z" stroke-width=".5px"/>
</g>
<g transform="matrix(0 1.9481 -1.938 0 35.587 -19.164)" fill="none" stroke-width="1px">
<path d="m12.8 16.597v-6.3008s-0.07734-0.15625-0.07734-0.23828 0.07734-0.10156 0.07734-0.16406 0.08839-0.07031 0.08839-0.07031 0.15796-0.023437 0.30936-0.023437 0.4088 0.05469 0.4088 0.05469l0.19572-0.125-0.19572-0.13281s-0.27894 0.046875-0.4088 0.046875-0.30936-0.10547-0.30936-0.10547l-0.08839-0.00781s-0.07734-0.07422-0.07734-0.23438v-2.2812s0.07734-0.16797 0.07734-0.30078-0.07734-0.23047-0.07734-0.23047-0.13338-0.11328-0.30756-0.11917c-0.17418-0.00589-0.30755 0.10739-0.30755 0.10739s-0.07734 0.09766-0.07734 0.23047 0.07734 0.30078 0.07734 0.30078v2.2812c0 0.16016-0.07734 0.23438-0.07734 0.23438l-0.08839 0.00781s-0.17951 0.10547-0.30936 0.10547c-0.12985 0-0.40879-0.046875-0.40879-0.046875l-0.19572 0.13281 0.19572 0.125s0.2574-0.05469 0.40879-0.05469c0.1514 0 0.30936 0.023437 0.30936 0.023437s0.08839 0.00781 0.08839 0.07031 0.07734 0.08203 0.07734 0.16406c0 0.08203-0.07734 0.23828-0.07734 0.23828v6.3008c0 0.59765 0.38489 1.1973 0.38489 1.1973s0.3849-0.58786 0.3849-1.1855z" stroke-width=".5px"/>
</g>
<g transform="matrix(-1.4131 1.3124 1.28 1.4339 14.237 -21.563)" fill="currentColor" stroke-width="1px">
<path d="m12.8 16.597v-6.3008s-0.07734-0.15625-0.07734-0.23828 0.07734-0.10156 0.07734-0.16406 0.08839-0.07031 0.08839-0.07031 0.15796-0.023437 0.30936-0.023437 0.4088 0.05469 0.4088 0.05469l0.19572-0.125-0.19572-0.13281s-0.27894 0.046875-0.4088 0.046875-0.30936-0.10547-0.30936-0.10547l-0.08839-0.00781s-0.07734-0.07422-0.07734-0.23438v-2.2812s0.07734-0.16797 0.07734-0.30078-0.07734-0.23047-0.07734-0.23047-0.13338-0.11328-0.30756-0.11917c-0.17418-0.00589-0.30755 0.10739-0.30755 0.10739s-0.07734 0.09766-0.07734 0.23047 0.07734 0.30078 0.07734 0.30078v2.2812c0 0.16016-0.07734 0.23438-0.07734 0.23438l-0.08839 0.00781s-0.17951 0.10547-0.30936 0.10547c-0.12985 0-0.40879-0.046875-0.40879-0.046875l-0.19572 0.13281 0.19572 0.125s0.2574-0.05469 0.40879-0.05469c0.1514 0 0.30936 0.023437 0.30936 0.023437s0.08839 0.00781 0.08839 0.07031 0.07734 0.08203 0.07734 0.16406c0 0.08203-0.07734 0.23828-0.07734 0.23828v6.3008c0 0.59765 0.38489 1.1973 0.38489 1.1973s0.3849-0.58786 0.3849-1.1855z" stroke-width=".5px"/>
</g>
</svg>